<?xml version="1.0" encoding="UTF-8"?>
<svg id="Image_3" data-name="Image 3" xmlns="http://www.w3.org/2000/svg" viewBox="0 0 4096 2306.26">
  <defs>
    <style>
      .cls-1 {
        fill: #02080c;
      }

      .cls-1, .cls-2, .cls-3, .cls-4, .cls-5 {
        stroke-width: 0px;
      }

      .cls-2 {
        fill: #030a10;
      }

      .cls-4 {
        fill: #010508;
      }

      .cls-5 {
        fill: #000204;
      }
    </style>
  </defs>
  <rect id="fond" class="cls-1" y="2.26" width="4096" height="2304"/>
  <g>
    <path id="path118" class="cls-4" d="m0,2.26C160.43-2.65,321.07-7.34,443.31,77.99c122.24,85.12,206.08,260.48,354.35,302.72,148.27,42.03,360.96-49.07,482.35,9.81,121.39,58.88,151.25,267.52,229.97,405.76,78.72,138.24,206.08,205.65,281.6,312.96,75.52,107.09,99.2,253.87,177.49,381.44,78.08,127.57,210.99,236.16,276.05,369.07,64.85,132.69,61.87,289.49,58.88,446.51H0V2.26Z"/>
    <path id="path102" class="cls-4" d="m4096,2306.26c-146.35-40.53-292.91-81.07-433.71-123.73-140.8-42.67-275.84-87.47-408.75-146.35-133.12-58.67-263.89-131.84-364.16-228.27-100.27-96.43-169.81-216.32-301.87-297.17-132.05-80.85-326.19-122.67-382.29-245.12-56.32-122.24,25.6-325.12-30.93-467.41-56.53-142.29-251.31-224-337.92-346.45-86.83-122.67-65.71-286.08-44.37-449.49h2304v2304Z"/>
  </g>
  <g>
    <path id="path120" class="cls-5" d="m0,331.43c137.6-4.05,275.2-8.32,379.95,64.85,104.75,72.96,176.64,223.36,303.79,259.41,127.15,36.05,309.33-41.81,413.44,8.53,104.11,50.35,129.71,229.33,197.12,347.73,67.41,118.4,176.64,176.43,241.28,268.16,64.85,91.95,85.12,217.6,152.11,327.04,67.2,109.44,180.91,202.45,236.59,316.37,55.68,113.71,53.12,248.32,50.56,382.72H0V331.43Z"/>
    <path id="path104" class="cls-5" d="m4096,1977.09c-125.44-34.77-251.09-69.55-371.63-106.03-120.75-36.69-236.59-74.88-350.51-125.44-113.92-50.35-226.13-112.85-312.11-195.63-85.97-82.56-145.71-185.39-258.77-254.72-113.07-69.33-279.68-105.17-327.68-210.13-48.21-104.75,21.97-278.61-26.45-400.64-48.43-121.81-215.47-192-289.71-296.96-74.45-104.96-56.32-245.12-37.97-385.28h1974.83v1974.83Z"/>
  </g>
  <g>
    <path id="path122" class="cls-3" d="m0,660.61c114.56-3.41,229.33-6.83,316.59,53.97,87.25,61.01,147.2,186.24,253.23,216.32,105.81,30.08,257.92-34.99,344.53,7.04,86.61,42.03,107.95,191.15,164.27,289.71,56.11,98.77,147.2,146.99,200.96,223.57,53.97,76.59,70.83,181.33,126.93,272.43,55.89,91.31,150.83,168.75,197.12,263.68,46.29,94.72,44.16,206.93,42.03,318.93H0V660.61Z"/>
    <path id="path106" class="cls-3" d="m4096,1647.91c-104.53-29.01-209.28-57.81-309.76-88.32-100.48-30.51-197.12-62.51-292.05-104.53-94.93-42.03-188.37-94.08-260.05-162.99-71.47-68.91-121.39-154.45-215.68-212.27-94.29-57.81-232.96-87.68-273.07-175.15-40.11-87.25,18.35-232.32-21.97-333.87-40.32-101.55-179.63-160-241.49-247.47-62.08-87.47-46.72-204.37-31.57-321.07h1645.65v1645.65Z"/>
  </g>
  <g>
    <path id="path124" class="cls-5" d="m0,989.78c91.73-2.77,183.47-5.55,253.23,43.09,69.97,48.85,117.76,148.91,202.45,173.01,84.91,24.11,206.51-27.95,275.84,5.76,69.33,33.49,86.4,152.75,131.41,231.68,44.8,78.93,117.76,117.76,160.85,178.99,43.09,61.23,56.53,145.07,101.33,217.81,44.8,72.96,120.75,135.04,157.87,210.99,37.12,75.73,35.2,165.55,33.49,255.15H0V989.78Z"/>
    <path id="path108" class="cls-5" d="m4096,1318.74c-83.63-23.04-167.47-46.29-247.89-70.61-80.43-24.32-157.65-49.92-233.6-83.63-75.95-33.49-150.61-75.31-208-130.35-57.17-55.25-97.07-123.73-172.59-169.81-75.31-46.29-186.24-70.19-218.45-140.16-32-69.76,14.72-185.81-17.49-267.09-32.43-81.28-143.57-128-193.28-197.97-49.49-69.97-37.33-163.41-25.17-256.85h1316.48v1316.48Z"/>
  </g>
  <g>
    <path id="path126" class="cls-4" d="m0,1318.74c68.69-1.92,137.6-4.05,189.87,32.43,52.48,36.69,88.32,111.79,151.89,129.92,63.57,17.92,154.88-21.12,206.72,4.05,52.05,25.39,64.85,114.77,98.56,174.08,33.92,59.09,88.32,88.11,120.75,133.97,32.43,45.87,42.45,108.8,76.16,163.63,33.49,54.61,90.45,101.12,118.19,158.08,27.95,56.96,26.67,124.16,25.39,191.36H0v-987.52Z"/>
    <path id="path110" class="cls-4" d="m4096,989.78c-62.72-17.49-125.44-34.77-185.81-53.12-60.37-18.35-118.19-37.55-175.36-62.72-56.96-25.17-112.85-56.53-155.95-97.71-42.88-41.39-72.75-92.8-129.28-127.57-56.75-34.56-139.95-52.48-164.05-104.96-23.89-52.48,11.09-139.31-13.01-200.32-24.32-61.01-107.73-96-145.07-148.48-37.12-52.48-27.95-122.67-18.99-192.64h987.52v987.52Z"/>
  </g>
  <g>
    <path id="path128" class="cls-1" d="m0,1647.91c45.87-1.28,91.73-2.77,126.72,21.76,34.77,24.32,58.88,74.45,101.12,86.4,42.45,11.95,103.25-13.87,137.81,2.77,34.77,16.85,43.31,76.59,65.71,116.05,22.61,39.47,58.88,58.67,80.43,89.39,21.76,30.51,28.37,72.53,50.77,109.01,22.4,36.48,60.37,67.41,78.93,105.39,18.56,37.97,17.71,82.77,16.85,127.57H0v-658.35Z"/>
    <path id="path112" class="cls-1" d="m4096,660.61c-41.81-11.73-83.63-23.25-123.95-35.41-40.11-12.16-78.72-24.96-116.69-41.81s-75.52-37.55-104.11-65.28c-28.59-27.52-48.64-61.65-86.19-84.91-37.76-23.04-93.23-34.99-109.23-69.97-16.21-34.99,7.25-92.8-8.96-133.55-16-40.53-71.68-64-96.43-98.99-24.96-34.99-18.77-81.71-12.8-128.43h658.35v658.35Z"/>
  </g>
  <g>
    <path id="path130" class="cls-2" d="m0,1977.09c22.83-.64,45.87-1.28,63.36,10.88,17.49,12.16,29.44,37.12,50.56,43.31,21.12,5.97,51.63-7.04,68.91,1.28,17.28,8.53,21.55,38.19,32.85,58.03,11.31,19.63,29.44,29.44,40.32,44.59,10.67,15.36,14.08,36.27,25.39,54.61,11.09,18.13,30.08,33.71,39.25,52.69,9.39,18.99,8.96,41.39,8.53,63.79H0v-329.17Z"/>
    <path id="path114" class="cls-2" d="m4096,331.43c-20.91-5.76-41.81-11.52-61.87-17.71-20.27-6.19-39.47-12.59-58.45-20.91-18.99-8.32-37.76-18.77-52.05-32.64-14.29-13.65-24.32-30.93-43.09-42.45-18.99-11.52-46.72-17.49-54.61-34.99-8.11-17.49,3.63-46.51-4.48-66.77-8.11-20.27-35.84-32-48.21-49.49-12.37-17.49-9.39-40.96-6.4-64.21h329.17v329.17Z"/>
  </g>
</svg>