<?xml version="1.0" encoding="utf-8"?>
<!-- Generator: Adobe Illustrator 27.9.0, SVG Export Plug-In . SVG Version: 6.00 Build 0)  -->
<svg version="1.1"
	 id="visual" xmlns:svg="http://www.w3.org/2000/svg" xmlns:sodipodi="http://sodipodi.sourceforge.net/DTD/sodipodi-0.dtd" xmlns:inkscape="http://www.inkscape.org/namespaces/inkscape"
	 xmlns="http://www.w3.org/2000/svg" xmlns:xlink="http://www.w3.org/1999/xlink" x="0px" y="0px" viewBox="0 0 4096 2160"
	 style="enable-background:new 0 0 4096 2160;" xml:space="preserve">
<style type="text/css">
	.st0{fill:#241F31;}
	.st1{fill:#30223B;}
	.st2{fill:#4E254A;}
	.st3{fill:#70234E;}
	.st4{fill:#921F48;}
	.st5{fill:#AF2438;}
	.st6{fill:#C1381D;}
	.st7{fill:#C64600;}
</style>
<rect id="rect2" y="-70.9" class="st0" width="4096" height="2304"/>
<g>
	<path id="path118" class="st1" d="M0-70.9c160.4-4.9,321.1-9.6,443.3,75.7C565.5,90,649.4,265.3,797.7,307.6
		c148.3,42,361-49.1,482.3,9.8c121.4,58.9,151.3,267.5,230,405.8s206.1,205.7,281.6,313c75.5,107.1,99.2,253.9,177.5,381.4
		c78.1,127.6,211,236.2,276.1,369.1c64.9,132.7,61.9,289.5,58.9,446.5H0V-70.9z"/>
	<path id="path102" class="st1" d="M4096,2233.1c-146.3-40.5-292.9-81.1-433.7-123.7c-140.8-42.7-275.8-87.5-408.7-146.3
		c-133.1-58.7-263.9-131.8-364.2-228.3c-100.3-96.4-169.8-216.3-301.9-297.2c-132.1-80.9-326.2-122.7-382.3-245.1
		c-56.3-122.2,25.6-325.1-30.9-467.4c-56.5-142.3-251.3-224-337.9-346.5C1749.5,256,1770.7,92.5,1792-70.9h2304V2233.1z"/>
</g>
<g>
	<path id="path120" class="st2" d="M0,258.3c137.6-4.1,275.2-8.3,379.9,64.9c104.7,73,176.6,223.4,303.8,259.4
		c127.1,36.1,309.3-41.8,413.4,8.5s129.7,229.3,197.1,347.7c67.4,118.4,176.6,176.4,241.3,268.2c64.9,91.9,85.1,217.6,152.1,327
		c67.2,109.4,180.9,202.5,236.6,316.4c55.7,113.7,53.1,248.3,50.6,382.7H0V258.3z"/>
	<path id="path104" class="st2" d="M4096,1904c-125.4-34.8-251.1-69.5-371.6-106c-120.7-36.7-236.6-74.9-350.5-125.4
		c-113.9-50.3-226.1-112.9-312.1-195.6c-86-82.6-145.7-185.4-258.8-254.7c-113.1-69.3-279.7-105.2-327.7-210.1
		c-48.2-104.7,22-278.6-26.5-400.6c-48.4-121.8-215.5-192-289.7-297c-74.5-105-56.3-245.1-38-385.3H4096V1904z"/>
</g>
<g>
	<path id="path122" class="st3" d="M0,587.5c114.6-3.4,229.3-6.8,316.6,54c87.3,61,147.2,186.2,253.2,216.3
		c105.8,30.1,257.9-35,344.5,7c86.6,42,107.9,191.1,164.3,289.7c56.1,98.8,147.2,147,201,223.6c54,76.6,70.8,181.3,126.9,272.4
		c55.9,91.3,150.8,168.7,197.1,263.7c46.3,94.7,44.2,206.9,42,318.9H0V587.5z"/>
	<path id="path106" class="st3" d="M4096,1574.8c-104.5-29-209.3-57.8-309.8-88.3c-100.5-30.5-197.1-62.5-292.1-104.5
		c-94.9-42-188.4-94.1-260.1-163c-71.5-68.9-121.4-154.5-215.7-212.3c-94.3-57.8-233-87.7-273.1-175.1
		c-40.1-87.3,18.3-232.3-22-333.9c-40.3-101.5-179.6-160-241.5-247.5c-62.1-87.5-46.7-204.4-31.6-321.1H4096V1574.8z"/>
</g>
<g>
	<path id="path124" class="st4" d="M0,916.6c91.7-2.8,183.5-5.5,253.2,43.1c70,48.9,117.8,148.9,202.5,173
		c84.9,24.1,206.5-27.9,275.8,5.8c69.3,33.5,86.4,152.7,131.4,231.7c44.8,78.9,117.8,117.8,160.9,179s56.5,145.1,101.3,217.8
		c44.8,73,120.7,135,157.9,211c37.1,75.7,35.2,165.5,33.5,255.1H0V916.6z"/>
	<path id="path108" class="st4" d="M4096,1245.6c-83.6-23-167.5-46.3-247.9-70.6c-80.4-24.3-157.7-49.9-233.6-83.6
		c-75.9-33.5-150.6-75.3-208-130.3c-57.2-55.3-97.1-123.7-172.6-169.8c-75.3-46.3-186.2-70.2-218.5-140.2
		c-32-69.8,14.7-185.8-17.5-267.1c-32.4-81.3-143.6-128-193.3-198c-49.5-70-37.3-163.4-25.2-256.9H4096V1245.6z"/>
</g>
<g>
	<path id="path126" class="st5" d="M0,1245.6c68.7-1.9,137.6-4.1,189.9,32.4c52.5,36.7,88.3,111.8,151.9,129.9
		c63.6,17.9,154.9-21.1,206.7,4.1c52.1,25.4,64.9,114.8,98.6,174.1c33.9,59.1,88.3,88.1,120.7,134c32.4,45.9,42.5,108.8,76.2,163.6
		c33.5,54.6,90.5,101.1,118.2,158.1c27.9,57,26.7,124.2,25.4,191.4H0V1245.6z"/>
	<path id="path110" class="st5" d="M4096,916.6c-62.7-17.5-125.4-34.8-185.8-53.1S3792,826,3734.8,800.8
		c-57-25.2-112.9-56.5-155.9-97.7c-42.9-41.4-72.7-92.8-129.3-127.6c-56.7-34.6-139.9-52.5-164.1-105
		c-23.9-52.5,11.1-139.3-13-200.3c-24.3-61-107.7-96-145.1-148.5c-37.1-52.5-27.9-122.7-19-192.6H4096V916.6z"/>
</g>
<g>
	<path id="path128" class="st6" d="M0,1574.8c45.9-1.3,91.7-2.8,126.7,21.8c34.8,24.3,58.9,74.5,101.1,86.4
		c42.5,11.9,103.3-13.9,137.8,2.8c34.8,16.9,43.3,76.6,65.7,116.1c22.6,39.5,58.9,58.7,80.4,89.4c21.8,30.5,28.4,72.5,50.8,109
		s60.4,67.4,78.9,105.4c18.6,38,17.7,82.8,16.9,127.6H0V1574.8z"/>
	<path id="path112" class="st6" d="M4096,587.5c-41.8-11.7-83.6-23.3-123.9-35.4c-40.1-12.2-78.7-25-116.7-41.8
		c-38-16.9-75.5-37.5-104.1-65.3c-28.6-27.5-48.6-61.7-86.2-84.9c-37.8-23-93.2-35-109.2-70c-16.2-35,7.3-92.8-9-133.5
		c-16-40.5-71.7-64-96.4-99c-25-35-18.8-81.7-12.8-128.4H4096V587.5z"/>
</g>
<g>
	<path id="path130" class="st7" d="M0,1904c22.8-0.6,45.9-1.3,63.4,10.9c17.5,12.2,29.4,37.1,50.6,43.3c21.1,6,51.6-7,68.9,1.3
		c17.3,8.5,21.5,38.2,32.9,58c11.3,19.6,29.4,29.4,40.3,44.6c10.7,15.4,14.1,36.3,25.4,54.6c11.1,18.1,30.1,33.7,39.3,52.7
		c9.4,19,9,41.4,8.5,63.8H0V1904z"/>
	<path id="path114" class="st7" d="M4096,258.3c-20.9-5.8-41.8-11.5-61.9-17.7c-20.3-6.2-39.5-12.6-58.5-20.9
		c-19-8.3-37.8-18.8-52.1-32.6c-14.3-13.7-24.3-30.9-43.1-42.5c-19-11.5-46.7-17.5-54.6-35c-8.1-17.5,3.6-46.5-4.5-66.8
		s-35.8-32-48.2-49.5c-12.4-17.5-9.4-41-6.4-64.2H4096V258.3z"/>
</g>
</svg>
